<?xml version="1.0" standalone="no"?>
<!DOCTYPE svg PUBLIC "-//W3C//DTD SVG 20010904//EN"
 "http://www.w3.org/TR/2001/REC-SVG-20010904/DTD/svg10.dtd">
<svg version="1.0" xmlns="http://www.w3.org/2000/svg"
 width="128.000000pt" height="128.000000pt" viewBox="0 0 128.000000 128.000000"
 preserveAspectRatio="xMidYMid meet">

<g transform="translate(0.000000,128.000000) scale(0.100000,-0.100000)"
fill="#000000" stroke="none">
<path d="M790 1265 c0 -13 -33 -15 -237 -15 -131 0 -243 -4 -250 -8 -9 -6 -8
-16 7 -40 l20 -32 137 -2 c76 -2 213 -1 304 1 101 2 169 -1 172 -7 4 -6 -109
-12 -305 -17 l-311 -7 -19 24 c-10 12 -23 38 -30 56 -13 35 -21 38 -61 20
l-27 -13 0 -612 0 -613 410 0 409 0 0 276 1 277 45 52 45 53 0 311 0 311 -155
0 c-131 0 -155 -2 -155 -15z m-500 -556 l5 -455 38 -52 39 -52 69 0 70 0 -33
28 c-18 16 -47 34 -64 41 -29 11 -33 18 -49 94 -9 45 -21 87 -26 93 -5 6 -6
14 -2 17 3 4 1 12 -5 19 -5 7 -10 34 -9 59 0 25 -3 50 -6 57 -4 6 -3 13 1 16
5 3 7 17 4 32 -2 14 0 29 5 33 9 5 30 128 38 221 18 206 19 213 51 244 22 23
165 22 199 0 14 -9 25 -13 25 -10 0 4 9 2 20 -4 13 -7 33 -7 64 0 52 12 194
-3 212 -23 23 -22 31 -147 22 -322 -5 -93 -10 -210 -12 -260 -4 -112 -22 -173
-53 -188 -13 -6 -22 -16 -19 -23 5 -12 -15 -24 -75 -43 -44 -14 -79 -14 -79
-1 0 17 -20 11 -48 -15 -15 -14 -34 -25 -43 -25 -20 0 -33 -27 -17 -36 6 -4
70 -9 142 -12 l132 -5 42 53 c51 64 56 47 6 -21 l-36 -49 -251 1 c-139 0 -260
3 -269 7 -9 4 -40 39 -67 79 l-51 72 0 446 c0 348 3 446 13 442 9 -3 13 -111
17 -458z"/>
<path d="M573 939 c-57 -22 -113 -75 -152 -142 -20 -34 -25 -60 -29 -133 -5
-102 10 -151 69 -225 45 -58 70 -67 174 -65 88 1 92 2 142 39 37 27 60 54 79
92 14 30 29 53 33 51 4 -3 6 12 4 32 -3 30 -1 33 7 17 7 -15 9 2 7 60 -6 133
-72 233 -182 274 -68 26 -85 26 -152 0z m152 -45 c11 -8 16 -14 12 -14 -4 0
11 -17 34 -37 62 -56 83 -104 83 -193 0 -77 -11 -110 -58 -173 -68 -92 -228
-89 -300 5 -36 48 -48 83 -56 173 -7 69 -5 86 12 128 47 109 190 167 273 111z"/>
<path d="M631 788 c-7 -40 -15 -80 -20 -88 -4 -8 -38 -22 -74 -30 -42 -9 -67
-20 -67 -28 0 -7 6 -12 13 -11 6 1 38 1 69 0 45 -1 56 -4 52 -15 -3 -8 -1 -17
5 -20 5 -3 13 -35 16 -71 4 -36 11 -65 16 -65 8 0 15 90 10 127 -4 29 20 53
53 53 18 0 55 3 81 7 l48 6 -49 12 c-27 7 -61 15 -75 18 -24 6 -27 13 -38 92
-7 47 -17 85 -21 85 -5 0 -13 -33 -19 -72z"/>
<path d="M1037 543 c-4 -3 -7 -49 -7 -101 0 -53 2 -93 5 -90 6 6 18 198 12
198 -2 0 -7 -3 -10 -7z"/>
<path d="M1070 80 c-8 -5 -18 -6 -22 -4 -4 3 -8 -13 -8 -35 0 -39 2 -41 30
-41 28 0 30 2 30 39 0 43 -8 54 -30 41z"/>
</g>
</svg>
