<?xml version="1.0" standalone="no"?>
<!DOCTYPE svg PUBLIC "-//W3C//DTD SVG 20010904//EN"
 "http://www.w3.org/TR/2001/REC-SVG-20010904/DTD/svg10.dtd">
<svg version="1.0" xmlns="http://www.w3.org/2000/svg"
 width="128.000000pt" height="128.000000pt" viewBox="0 0 128.000000 128.000000"
 preserveAspectRatio="xMidYMid meet">

<g transform="translate(0.000000,128.000000) scale(0.100000,-0.100000)"
fill="#000000" stroke="none">
<path d="M369 1213 c0 -5 -2 -48 -2 -98 l-2 -90 -62 3 -63 3 0 -415 0 -415 63
-3 62 -3 2 -55 c1 -30 2 -58 2 -62 1 -5 127 -8 281 -8 l280 0 0 65 0 65 55 0
55 0 0 415 0 415 -55 0 -55 0 0 95 0 95 -280 0 c-154 0 -280 -3 -281 -7z"/>
<path d="M70 648 l0 -283 65 0 65 0 0 283 0 282 -65 0 -65 0 0 -282z"/>
<path d="M1080 650 l0 -280 65 0 65 0 0 280 0 280 -65 0 -65 0 0 -280z"/>
</g>
</svg>
